# xmcd
#
# Track frame offsets:
#	150
#	19357
#	38268
# Disc length: 809 seconds
# Revision: 1
# Processed by: cddbd v1.5.1PL2 Copyright (c) Steve Scherf et al.
#
# Submitted via: libkcddb 0.21
#
DISCID=17032703
DTITLE=Robert von Grauheim - Lust, Leidenschaft oder Liebe
DYEAR=2004
DGENRE=Pop
TTITLE0=Lust, Leidenschaft oder Liebe
TTITLE1=Zweisamkeit
TTITLE2=Leib und Seele
EXTD=
EXTT0=
EXTT1=
EXTT2=
PLAYORDER=
